<svg id="eoU5wV4zK0Y1" xmlns="http://www.w3.org/2000/svg" xmlns:xlink="http://www.w3.org/1999/xlink" viewBox="0 0 500 500" shape-rendering="geometricPrecision" text-rendering="geometricPrecision" project-id="d4563c6aeee74f2d9c8e387d3a067741" export-id="980b2541d2b84d2bbec25564529c3edc" cached="false"><path d="M383.712368,218.719264q.010825.378209-54.960276.78685c-1.432718-18.932333-21.743274-49.147596-41.426363-61.880394-12.553055,16.484507-26.327965-6.480794-34.009797-27.11241-33.450725,25.802493-54.728229,64.841813-54.652517,89.225953l-47.601984.940448c-4.863666-37.504246,25.398796-117.987949,115.780397-186.913453-.28461,46.823789,2.313321,100.529791,55.04315,61.33421c39.683869,41.657194,60.745315,85.813054,61.82739,123.618796Z" transform="translate(0 0.000002)" fill="#ffc623" stroke="#000" stroke-width="8" stroke-linecap="round" stroke-linejoin="round"/><path d="M11.235132,16.124886l27.835587-.518147L43.305803,5.035108l9.86401-3.743944h322.751251v14.833723l-9.116325,3.8874-32.071425.000235v11.2323h39.817144l2.117917,15.638083-9.863637,2.420292-32.071424.000208v11.894139l-8.771101,2.808208L0,64.005743l-.000003-14.945018l11.235129-2.839542l29.953507.000117.000001-11.232534h-41.188638L0.000003,19.10229l11.235129-2.977404Z" transform="matrix(1.14219 0 0 3.655064 35.313366 228.17231)" opacity="0.61" fill="#5da3ff" stroke-width="0"/><g transform="matrix(.42785 0 0 0.42785 30.941311 30.941264)"><path d="M871.84,1023.766h-863.614c-2.121159.001593-4.155899-.840328-5.655785-2.340215s-2.341808-3.534626-2.340215-5.655785v-127.942c-.001593-2.121159.840328-4.155899,2.340215-5.655785s3.534626-2.341808,5.655785-2.340215h863.614c4.415154.002207,7.993793,3.580846,7.996,7.996v127.942c-.002207,4.415154-3.580846,7.993793-7.996,7.996ZM16.222,1007.774h847.622v-111.95h-847.622v111.95Z"/><path d="M983.79,895.824h-863.614c-2.121159.001593-4.155899-.840328-5.655785-2.340215s-2.341808-3.534626-2.340215-5.655785v-127.942c-.001593-2.121159.840328-4.155899,2.340215-5.655785s3.534626-2.341808,5.655785-2.340215h863.614c4.414698.003309,7.992691,3.581302,7.996,7.996v127.942c-.003309,4.414698-3.581302,7.992691-7.996,7.996ZM128.172,879.832h847.62v-111.95h-847.62v111.95Z"/><path d="M871.84,767.882h-863.614c-2.121159.001593-4.155899-.840328-5.655785-2.340215s-2.341808-3.534626-2.340215-5.655785v-127.942c-.001593-2.121159.840328-4.155899,2.340215-5.655785s3.534626-2.341808,5.655785-2.340215h863.614c4.415154.002207,7.993793,3.580846,7.996,7.996v127.942c-.002207,4.415154-3.580846,7.993793-7.996,7.996ZM16.222,751.89h847.622v-111.95h-847.622v111.95Z"/><path d="M983.79,639.942h-863.614c-2.121159.001593-4.155899-.840328-5.655785-2.340215s-2.341808-3.534626-2.340215-5.655785v-127.95c-.001593-2.121159.840328-4.155899,2.340215-5.655785s3.534626-2.341808,5.655785-2.340215h863.614c4.414698.003309,7.992691,3.581302,7.996,7.996v127.95c-.003309,4.414698-3.581302,7.992691-7.996,7.996ZM128.172,623.95h847.62v-111.958h-847.62v111.958Z"/><path d="M983.79,511.992c-2.121719.005297-4.15748-.837957-5.654-2.342-1.500015-1.499279-2.342777-3.533179-2.342777-5.654s.842762-4.154721,2.342777-5.654l15.992-15.992c1.498937-1.499894,3.532506-2.342606,5.653-2.342606s4.154063.842712,5.653,2.342606c1.499894,1.498937,2.342606,3.532506,2.342606,5.653s-.842712,4.154063-2.342606,5.653L989.442,509.65c-1.499785,1.497939-3.532289,2.340141-5.652,2.342Zm-863.614,0c-3.235013.001934-6.152293-1.94607-7.390276-4.934834s-.552596-6.429038,1.736276-8.715166l31.986-31.984c1.498937-1.499894,3.532506-2.342606,5.653-2.342606s4.154063.842712,5.653,2.342606c1.499894,1.498937,2.342606,3.532506,2.342606,5.653s-.842712,4.154063-2.342606,5.653L125.828,509.65c-1.497416,1.501482-3.531458,2.344321-5.652,2.342Z"/><path d="M1015.774,480.006h-863.614c-2.120834.000531-4.154956-.841732-5.654612-2.341388s-2.341919-3.533778-2.341388-5.654612c-.001061-2.12118.840967-4.155816,2.340681-5.655905s3.534139-2.342626,5.655319-2.342095h863.614c4.415478.00331,7.993794,3.582521,7.996,7.998-.002207,4.415154-3.580846,7.993793-7.996,7.996ZM8.226,639.942c-2.121479.002102-4.156298-.84148-5.654-2.344-1.499894-1.498937-2.342606-3.532506-2.342606-5.653s.842712-4.154063,2.342606-5.653l31.986-31.984c1.498937-1.499894,3.532506-2.342606,5.653-2.342606s4.154063.842712,5.653,2.342606c1.499894,1.498937,2.342606,3.532506,2.342606,5.653s-.842712,4.154063-2.342606,5.653L13.88,637.598c-1.497702,1.50252-3.532521,2.346102-5.654,2.344Z"/><path d="M104.182,607.958h-63.97c-2.120834.000531-4.154956-.841732-5.654612-2.341388s-2.341919-3.533778-2.341388-5.654612c-.001593-2.121343.840265-4.156288,2.340094-5.656492s3.534563-2.34257,5.655906-2.341508h63.97c2.121527-.001062,4.156466.841241,5.656613,2.341387s2.342449,3.535086,2.341387,5.656613c0,2.121018-.842708,4.155135-2.342681,5.654733s-3.534301,2.341798-5.655319,2.341267ZM8.226,895.824c-3.235013.001934-6.152293-1.94607-7.390276-4.934834s-.552596-6.429038,1.736276-8.715166L34.558,850.19c1.498937-1.499894,3.532506-2.342606,5.653-2.342606s4.154063.842712,5.653,2.342606c1.499894,1.498937,2.342606,3.532506,2.342606,5.653s-.842712,4.154063-2.342606,5.653L13.88,893.482c-1.498532,1.501037-3.532984,2.343748-5.654,2.342Z"/><path d="M104.182,863.84h-63.97c-2.120834.000531-4.154956-.841732-5.654612-2.341388s-2.341919-3.533778-2.341388-5.654612c-.001593-2.121343.840265-4.156288,2.340094-5.656492s3.534563-2.34257,5.655906-2.341508h63.97c2.121527-.001062,4.156466.841241,5.656613,2.341387s2.342449,3.535086,2.341387,5.656613c.000531,2.12118-.842006,4.155606-2.342095,5.655319s-3.534725,2.341742-5.655905,2.340681ZM695.92,511.992c-3.235013.001934-6.152293-1.94607-7.390276-4.934834s-.552596-6.429038,1.736276-8.715166l15.992-15.992c1.499279-1.500015,3.533179-2.342777,5.654-2.342777s4.154721.842762,5.654,2.342777c1.499894,1.498937,2.342606,3.532506,2.342606,5.653s-.842712,4.154063-2.342606,5.653L701.574,509.65c-1.500152,1.498614-3.533553,2.340889-5.654,2.342Zm-287.876,0c-3.235013.001934-6.152293-1.94607-7.390276-4.934834s-.552596-6.429038,1.736276-8.715166l15.992-15.992c1.498937-1.499894,3.532506-2.342606,5.653-2.342606s4.154063.842712,5.653,2.342606c1.499894,1.498937,2.342606,3.532506,2.342606,5.653s-.842712,4.154063-2.342606,5.653L413.696,509.65c-1.497416,1.501482-3.531458,2.344321-5.652,2.342ZM983.79,639.942c-2.122184.00566-4.158317-.838467-5.654-2.344-1.499894-1.498937-2.342606-3.532506-2.342606-5.653s.842712-4.154063,2.342606-5.653l31.984-31.984c1.499279-1.500015,3.533179-2.342777,5.654-2.342777s4.154721.842762,5.654,2.342777c1.499894,1.498937,2.342606,3.532506,2.342606,5.653s-.842712,4.154063-2.342606,5.653l-31.986,31.984c-1.498962,1.499415-3.531828,2.342487-5.652,2.344ZM871.84,767.882c-2.122096.005213-4.158063-.838845-5.654-2.344-1.499894-1.498937-2.342606-3.532506-2.342606-5.653s.842712-4.154063,2.342606-5.653l31.986-31.984c3.124-3.124,8.184-3.124,11.306,0s3.124,8.184,0,11.306l-31.986,31.984c-1.497839,1.501093-3.531433,2.344466-5.652,2.344Z"/><path d="M1015.774,607.958c-2.121811.003725-4.15779-.837512-5.658139-2.337861s-2.341586-3.536328-2.337861-5.658139v-127.95c0-4.42,3.56-7.998,7.996-7.998c4.415478.00331,7.993794,3.582521,7.996,7.998v127.95c-.00441,4.414241-3.581759,7.99159-7.996,7.996ZM983.79,767.882c-2.122184.00566-4.158317-.838467-5.654-2.344-1.499894-1.498937-2.342606-3.532506-2.342606-5.653s.842712-4.154063,2.342606-5.653l15.992-15.992c1.498937-1.499894,3.532506-2.342606,5.653-2.342606s4.154063.842712,5.653,2.342606c1.499894,1.498937,2.342606,3.532506,2.342606,5.653s-.842712,4.154063-2.342606,5.653l-15.992,15.992c-1.498588,1.499974-3.531696,2.343145-5.652,2.344Z"/><path d="M1015.774,735.898h-95.958c-2.121648.003191-4.157316-.838217-5.65755-2.33845s-2.341641-3.535902-2.33845-5.65755c-.004257-2.122157.836745-4.158651,2.337152-5.659433s3.53669-2.342293,5.658848-2.338567h95.958c2.122321-.004261,4.158915.837079,5.659438,2.337977s2.341353,3.537703,2.336562,5.660023c.003191,2.121648-.838217,4.157316-2.33845,5.65755s-3.535902,2.341641-5.65755,2.33845ZM983.79,895.824c-2.121719.005297-4.15748-.837957-5.654-2.342-1.500015-1.499279-2.342777-3.533179-2.342777-5.654s.842762-4.154721,2.342777-5.654l31.984-31.984c1.499279-1.500015,3.533179-2.342777,5.654-2.342777s4.154721.842762,5.654,2.342777c1.499894,1.498937,2.342606,3.532506,2.342606,5.653s-.842712,4.154063-2.342606,5.653l-31.986,31.986c-1.499785,1.497939-3.532289,2.340141-5.652,2.342Z"/><path d="M1015.774,863.84c-2.121811.003725-4.15779-.837512-5.658139-2.337861s-2.341586-3.536328-2.337861-5.658139v-127.942c-.004791-2.12232.836039-4.159124,2.336562-5.660023s3.537117-2.342238,5.659438-2.337977c4.415935.002208,7.994897,3.582065,7.996,7.998v127.942c-.003309,4.414698-3.581302,7.992691-7.996,7.996ZM903.824,735.898c-2.121811.003725-4.15779-.837512-5.658139-2.337861s-2.341586-3.536328-2.337861-5.658139v-79.964c-.004259-2.121974.836807-4.158263,2.337272-5.658728s3.536754-2.341531,5.658728-2.337272c4.415154.002207,7.993793,3.580846,7.996,7.996v79.964c-.003309,4.414698-3.581302,7.992691-7.996,7.996ZM871.84,1023.766c-3.235013.001934-6.152293-1.94607-7.390276-4.934834s-.552596-6.429038,1.736276-8.715166l31.986-31.984c3.124-3.124,8.184-3.124,11.306,0s3.124,8.184,0,11.306l-31.986,31.986c-1.499165,1.498868-3.532071,2.341236-5.652,2.342Z"/><path d="M903.824,991.782c-2.121811.003725-4.15779-.837512-5.658139-2.337861s-2.341586-3.536328-2.337861-5.658139v-79.966c-.004259-2.121974.836807-4.158263,2.337272-5.658728s3.536754-2.341531,5.658728-2.337272c4.415154.002207,7.993793,3.580846,7.996,7.996v79.964c-.002206,4.415479-3.580522,7.99469-7.996,7.998ZM296.096,751.89c-2.121343.001593-4.156288-.840265-5.656492-2.340094s-2.34257-3.534563-2.341508-5.655906v-95.958c-.001062-2.121343.841304-4.156078,2.341508-5.655906s3.535149-2.341687,5.656492-2.340094c2.120996-.001062,4.155427.84103,5.655198,2.340802s2.341864,3.534202,2.340802,5.655198v95.958c.001062,2.120996-.84103,4.155427-2.340802,5.655198s-3.534202,2.341864-5.655198,2.340802ZM408.028,623.95c-2.121343.001593-4.156288-.840265-5.656492-2.340094s-2.34257-3.534563-2.341508-5.655906v-95.964c-.001062-2.121343.841304-4.156078,2.341508-5.655906s3.535149-2.341687,5.656492-2.340094c2.120996-.001062,4.155427.84103,5.655198,2.340802s2.341864,3.534202,2.340802,5.655198v95.964c.001593,2.121159-.840328,4.155899-2.340215,5.655785s-3.534626,2.341808-5.655785,2.340215ZM583.97,751.89c-2.121974.004259-4.158263-.836807-5.658728-2.337272s-2.341531-3.536754-2.337272-5.658728v-95.958c-.004259-2.121974.836807-4.158263,2.337272-5.658728s3.536754-2.341531,5.658728-2.337272c4.415154.002207,7.993793,3.580846,7.996,7.996v95.958c-.002207,4.415154-3.580846,7.993793-7.996,7.996ZM296.096,1007.774c-2.121343.001593-4.156288-.840265-5.656492-2.340094s-2.34257-3.534563-2.341508-5.655906v-95.958c-.001062-2.121343.841304-4.156078,2.341508-5.655906s3.535149-2.341687,5.656492-2.340094c2.120996-.001062,4.155427.84103,5.655198,2.340802s2.341864,3.534202,2.340802,5.655198v95.958c.001062,2.120996-.84103,4.155427-2.340802,5.655198s-3.534202,2.341864-5.655198,2.340802Zm287.874,0c-2.121974.004259-4.158263-.836807-5.658728-2.337272s-2.341531-3.536754-2.337272-5.658728v-95.958c-.004259-2.121974.836807-4.158263,2.337272-5.658728s3.536754-2.341531,5.658728-2.337272c4.415154.002207,7.993793,3.580846,7.996,7.996v95.958c-.002207,4.415154-3.580846,7.993793-7.996,7.996ZM695.92,623.95c-2.121974.004259-4.158263-.836807-5.658728-2.337272s-2.341531-3.536754-2.337272-5.658728v-95.964c-.004259-2.121974.836807-4.158263,2.337272-5.658728s3.536754-2.341531,5.658728-2.337272c4.415154.002207,7.993793,3.580846,7.996,7.996v95.964c-.002207,4.415154-3.580846,7.993793-7.996,7.996ZM408.028,879.832c-2.121343.001593-4.156288-.840265-5.656492-2.340094s-2.34257-3.534563-2.341508-5.655906v-95.958c-.001062-2.121343.841304-4.156078,2.341508-5.655906s3.535149-2.341687,5.656492-2.340094c2.120996-.001062,4.155427.84103,5.655198,2.340802s2.341864,3.534202,2.340802,5.655198v95.958c.001593,2.121159-.840328,4.155899-2.340215,5.655785s-3.534626,2.341808-5.655785,2.340215Zm287.892,0c-2.121974.004259-4.158263-.836807-5.658728-2.337272s-2.341531-3.536754-2.337272-5.658728v-95.958c-.004259-2.121974.836807-4.158263,2.337272-5.658728s3.536754-2.341531,5.658728-2.337272c4.415154.002207,7.993793,3.580846,7.996,7.996v95.958c-.002207,4.415154-3.580846,7.993793-7.996,7.996Z"/></g></svg>
