<svg id="eDCrZmXgHY41" xmlns="http://www.w3.org/2000/svg" xmlns:xlink="http://www.w3.org/1999/xlink" viewBox="0 0 500 500" shape-rendering="geometricPrecision" text-rendering="geometricPrecision" project-id="6ed9667bbc634ae5a3dd0a3a09ccfc0e" export-id="c2df4624a4544e4eb81a3cefb5805812" cached="false"><g transform="matrix(1.216035 0 0 1.216035-136.44086-154.043865)" opacity="0.81"><g transform="matrix(0 1-1 0 584.215059-198.611004)"><path d="M382.776,391.309c-2.184,0-4.369-.833-6.036-2.501-3.335-3.335-3.335-8.738,0-12.073c66.573-66.573,66.573-174.899,0-241.472-3.335-3.335-3.335-8.737,0-12.072s8.738-3.335,12.073,0c73.226,73.23,73.226,192.386,0,265.617-1.668,1.668-3.853,2.501-6.037,2.501Z" transform="matrix(.841105 0 0 0.841105 152.741271 51.10463)" fill="#fff"/><path d="M431.065,439.603c-2.185,0-4.369-.833-6.036-2.501-3.335-3.335-3.335-8.737,0-12.072c93.202-93.202,93.202-244.857,0-338.06-3.335-3.335-3.335-8.737,0-12.072s8.738-3.335,12.072,0c99.864,99.859,99.864,262.345,0,362.204-1.667,1.668-3.851,2.501-6.036,2.501Z" transform="matrix(.871421 0 0 0.871421 147.835756 43.343818)" fill="#fff"/><path d="M431.065,439.603c-2.185,0-4.369-.833-6.036-2.501-3.335-3.335-3.335-8.737,0-12.072c93.202-93.202,93.202-244.857,0-338.06-3.335-3.335-3.335-8.737,0-12.072s8.738-3.335,12.072,0c99.864,99.859,99.864,262.345,0,362.204-1.667,1.668-3.851,2.501-6.036,2.501Z" transform="matrix(1.119732 0 0 1.119732 100.88609-20.223765)" fill="#fff"/></g><circle r="25.612" transform="translate(317.788073 217.717143)" fill="#fff"/></g></svg>
